<?xml version="1.0" encoding="UTF-8"?>
<!DOCTYPE svg PUBLIC "-//W3C//DTD SVG 1.1//EN" "http://www.w3.org/Graphics/SVG/1.1/DTD/svg11.dtd">
<!-- Creator: CorelDRAW 2020 (64-Bit) -->
<svg xmlns="http://www.w3.org/2000/svg" xml:space="preserve" width="160mm" height="90mm" version="1.1" style="shape-rendering:geometricPrecision; text-rendering:geometricPrecision; image-rendering:optimizeQuality; fill-rule:evenodd; clip-rule:evenodd"
viewBox="0 0 16000 9000"
 xmlns:xlink="http://www.w3.org/1999/xlink"
 xmlns:xodm="http://www.corel.com/coreldraw/odm/2003">
 <defs>
  <style type="text/css">
   <![CDATA[
    .fil0 {fill:#FEFEFE}
    .fil3 {fill:#020202}
    .fil1 {fill:#E300C1}
    .fil4 {fill:#020202;fill-rule:nonzero}
    .fil2 {fill:#E300C1;fill-rule:nonzero}
   ]]>
  </style>
    <clipPath id="id0">
     <path d="M125.15 329.27l15747.69 0 0 8349.99 -15747.69 0 0 -8349.99z"/>
    </clipPath>
 </defs>
 <g id="Capa_x0020_1">
  <metadata id="CorelCorpID_0Corel-Layer"/>
  <g id="_2139611200256">
   <g style="clip-path:url(#id0)">
    <image x="125.15" y="329.27" width="15747.69" height="8349.99" xlink:href="Sin título-8_Images\Sin título-8_ImgID1.png"/>
   </g>
   <path class="fil0" d="M6408.25 5173.5c223.87,-257.94 417.69,-540.15 555.09,-853.84 173.13,-395.28 321.73,-862.15 273.9,-1299.32 -41.55,-379.75 -220.61,-810.01 -538.05,-1040.69 -310.45,-225.6 -678.45,-285.07 -1042.94,-165.13 -409.82,134.85 -778.46,490.98 -895.42,909.56 -28.74,102.87 -24.89,248.32 -88.22,335.31 -79.35,109 -246.04,129.48 -360.46,66.81 -10.37,-5.68 -20.22,-12.25 -29.45,-19.63 -70.43,-56.32 -98.83,-157.71 -120.95,-241.38 -31.57,-119.49 -57.91,-233.44 -103.85,-349.16 -221.72,-558.43 -654.39,-997.66 -1245.79,-1146.2 -445.54,-111.9 -974.6,-39.66 -1306.32,301.42 -116.07,119.36 -197.36,262.91 -240.98,423.54 -169.21,623.03 206.58,1293.88 547.56,1789.71 77.23,112.31 169.51,224.78 255.92,330.31 55.15,67.35 111.19,134.26 168.85,199.49 36.1,40.83 78.21,89.61 119.6,124.93 78.39,66.92 149.99,140.24 220.72,215.06 61.77,65.35 123.19,132.66 189.83,193.07 180.82,163.93 356.23,335.21 523.9,512.57 166.27,175.87 328.26,360.55 472.69,554.87 118.29,159.15 228.44,322.06 332.12,491.1 108.82,177.41 191.65,355.45 281.05,542.48 34.83,72.87 65.31,153.15 94.65,228.44 47.72,122.49 93.2,246.09 135.92,370.42 45.2,131.54 89.2,266.77 122.21,401.91 16.11,65.97 50.57,208.19 19.49,271.73l-18.92 38.7 -40.57 -14.52c-92.06,-32.94 -181.19,-274.63 -224.58,-362.82 -58.07,-118.02 -114.75,-235.26 -179.96,-349.66 -100.54,-176.38 -202.01,-353.24 -314.77,-522.17 -99.89,-149.66 -208.79,-292.37 -320.16,-433.61 -77.41,-98.19 -166.12,-186.26 -243.52,-284.18l-1347.87 -1193.28c-476.61,-369.91 -1017.61,-1033.55 -1290.13,-1572.72 -216.48,-428.28 -352.72,-912.29 -301.56,-1395.21 41.31,-390.08 202.87,-746.63 479.49,-1026.06 304.31,-307.4 711.38,-484.83 1138.79,-531.83 488.72,-53.74 979.08,63.62 1409.03,296.47 189.37,102.56 467.74,324.13 601.89,492.06 81.3,101.78 157.92,201.66 229.14,310.99 36.8,56.49 71.18,112.05 100.93,172.68l64.98 119.88c31.74,-43.74 63.5,-87.87 101.4,-125.58 55.42,-55.14 111.46,-109.64 165.85,-165.8 96.25,-99.39 281.78,-223.55 407.52,-283.52 525.7,-250.74 1121.11,-291.96 1630.15,22.41 471.65,291.28 733.27,806.3 791.69,1347.02 34.64,320.74 -0.89,646.65 -87.58,956.67 -103.88,371.48 -280.26,720.21 -499.57,1036.55 -99.19,143.08 -201.05,279.28 -322.08,404.77 -101.25,104.99 -211.94,203.21 -318.43,302.97 -23.04,21.58 -50.92,42.54 -75.82,62.03 -46.82,36.65 -94.23,72.63 -141.79,108.33 -132.19,99.23 -266.17,196.49 -401.57,291.3 -128.57,90.04 -259.55,179.34 -393.57,261.08 -65.93,40.22 -199.38,121.81 -275.3,132.74l-54.19 7.8 -0.82 -54.74c-0.36,-23.65 -1.41,-46.8 7.49,-69.29 11.75,-29.66 36.92,-48.27 62.56,-65.33 42.88,-28.55 88.27,-54.97 131.93,-82.53 230.2,-145.33 444.76,-322.47 649.84,-501.01 181.12,-157.69 357.67,-320.56 539.01,-477.97zm-1045.46 -1302.89c108.31,18.54 283.28,55.61 328.47,95.16l16.45 14.39 0 21.85c0,60.25 -54.5,49.01 -88.36,43.56 -28.66,-4.61 -57.28,-9.4 -85.97,-13.87 -76.28,-11.88 -153.04,-22.19 -229.99,-28.93 -71.79,159.15 -232.17,565.97 -235.48,713.32 48.09,-5.7 101.19,-31.6 144.94,-46.18l214.26 -71.4 -166.49 152.59c-65.46,60 -154.11,118.45 -246.2,118.45 -82.65,0 -185.76,-78.61 -195.04,-162.32 -24.44,-189.36 93.52,-511.2 183.02,-717.22 -1.52,0 -3.05,0 -4.57,0 -88.65,0 -176.92,1.98 -265.15,10.55 -87.45,82.78 -171.26,172.45 -255.22,258.65 -116.06,119.17 -233.38,237.23 -355.97,349.73 -204.18,187.4 -557.84,488.79 -849.55,488.79 -153.69,0 -295.01,-101.18 -295.01,-265.97 0,-45.3 10.98,-92.06 36.42,-130.01 21.18,-31.61 54.89,-59.21 94.72,-59.21l128.21 0 -96.5 84.41c-7.85,6.86 -18.82,29.74 -18.82,40.5 0,65.48 47.72,78.38 105.35,78.38 373.33,0 901.86,-508.57 1228,-811.52 -140.04,21.65 -281.6,53.51 -411.74,100.91 -36.99,13.47 -166.97,66.28 -196.52,101.16 -2.22,12.79 -8.23,24.52 -17.9,33.57 -38.57,36.08 -95.43,5.82 -127.88,-22.78 -38.27,-33.72 -65.33,-81.33 -67.79,-132.93 -4.74,-99.77 125.23,-149.73 202.07,-174.31 123.07,-39.36 262.38,-61.04 390.47,-77.4 151.53,-19.35 306.78,-32.44 459.67,-38.68 138.97,-139.2 276.36,-280.31 413.72,-421.1 160.54,-164.56 322.45,-329.06 480.55,-495.94 51.18,-54.02 120.4,-131.21 200.91,-131.21 30.12,0 59.63,9.19 86.38,22.57 35.01,17.51 92.2,59.33 110.2,95.32l29.87 59.76 -66.13 9.45c-31.59,4.52 -50.79,27.07 -71.2,47.44 -32.56,34.85 -62.71,75.59 -90.42,114.36 -41.34,57.85 -80.31,117.72 -117.71,178.19 -93.46,151.08 -179.26,309.47 -254.28,470.49 -15.04,32.27 -29.66,64.75 -43.79,97.43zm-93.51 -424.46c-118.89,125.42 -237.57,251.06 -356.27,376.65 53.03,1.64 106.03,4.44 158.95,8.3 58.3,-124.12 123,-247.62 188.06,-367.88 3.09,-5.69 6.17,-11.38 9.26,-17.07zm4320.46 1727.35c181.34,157.41 357.89,320.28 539.01,477.97 205.08,178.54 419.64,355.68 649.84,501.01 43.66,27.56 89.05,53.98 131.93,82.53 25.64,17.06 50.81,35.67 62.56,65.33 8.9,22.49 7.85,45.64 7.49,69.29l-0.82 54.74 -54.19 -7.8c-75.92,-10.93 -209.37,-92.52 -275.3,-132.74 -134.02,-81.74 -265,-171.04 -393.57,-261.08 -135.4,-94.81 -269.38,-192.07 -401.57,-291.3 -47.56,-35.7 -94.97,-71.68 -141.79,-108.33 -24.9,-19.49 -52.78,-40.45 -75.82,-62.03 -106.49,-99.76 -217.18,-197.98 -318.43,-302.97 -121.03,-125.49 -222.89,-261.69 -322.08,-404.77 -219.31,-316.34 -395.69,-665.07 -499.57,-1036.55 -86.69,-310.02 -122.22,-635.93 -87.58,-956.67 58.42,-540.72 320.04,-1055.74 791.69,-1347.02 509.04,-314.37 1104.45,-273.15 1630.15,-22.41 125.74,59.97 311.27,184.13 407.52,283.52 54.39,56.16 110.43,110.66 165.85,165.8 37.9,37.71 69.66,81.84 101.4,125.58l64.98 -119.88c29.75,-60.63 64.13,-116.19 100.93,-172.68 71.22,-109.33 147.84,-209.21 229.14,-310.99 134.15,-167.93 412.52,-389.5 601.89,-492.06 429.95,-232.85 920.31,-350.21 1409.03,-296.47 427.41,47 834.48,224.43 1138.79,531.83 276.62,279.43 438.18,635.98 479.49,1026.06 51.16,482.92 -85.08,966.93 -301.56,1395.21 -272.52,539.17 -813.52,1202.81 -1290.13,1572.72l-1347.87 1193.28c-77.4,97.92 -166.11,185.99 -243.52,284.18 -111.37,141.24 -220.27,283.95 -320.16,433.61 -112.76,168.93 -214.23,345.79 -314.77,522.17 -65.21,114.4 -121.89,231.64 -179.96,349.66 -43.39,88.19 -132.52,329.88 -224.58,362.82l-40.57 14.52 -18.92 -38.7c-31.08,-63.54 3.38,-205.76 19.49,-271.73 33.01,-135.14 77.01,-270.37 122.21,-401.91 42.72,-124.33 88.2,-247.93 135.92,-370.42 29.34,-75.29 59.82,-155.57 94.65,-228.44 89.4,-187.03 172.23,-365.07 281.05,-542.48 103.68,-169.04 213.83,-331.95 332.12,-491.1 144.43,-194.32 306.42,-379 472.69,-554.87 167.67,-177.36 343.08,-348.64 523.9,-512.57 66.64,-60.41 128.06,-127.72 189.83,-193.07 70.73,-74.82 142.33,-148.14 220.72,-215.06 41.39,-35.32 83.5,-84.1 119.6,-124.93 57.66,-65.23 113.7,-132.14 168.85,-199.49 86.41,-105.53 178.69,-218 255.92,-330.31 340.98,-495.83 716.77,-1166.68 547.56,-1789.71 -43.62,-160.63 -124.91,-304.18 -240.98,-423.54 -331.72,-341.08 -860.78,-413.32 -1306.32,-301.42 -591.4,148.54 -1024.07,587.77 -1245.79,1146.2 -45.94,115.72 -72.28,229.67 -103.85,349.16 -22.12,83.67 -50.52,185.06 -120.95,241.38 -9.23,7.38 -19.08,13.95 -29.45,19.63 -114.42,62.67 -281.11,42.19 -360.46,-66.81 -63.33,-86.99 -59.48,-232.44 -88.22,-335.31 -95.9,-343.23 -361.88,-642.97 -671.49,-812.13 -415.09,-226.8 -878.1,-214.82 -1266.87,67.7 -317.44,230.68 -496.5,660.94 -538.05,1040.69 -47.83,437.17 100.77,904.04 273.9,1299.32 137.4,313.69 331.22,595.9 555.09,853.84zm2871.19 -1601.29c163,-48.21 410.43,-209.87 410.43,-343.87 0,-100.43 -113.57,-121.51 -193.21,-121.51 -401.35,0 -909.59,377.71 -1190.54,638.74 -201.56,187.27 -395.51,407.38 -539.83,642.22 -98.66,160.55 -208.65,387.45 -193.16,581.23 14.02,175.52 146.36,211.38 300.89,211.38 428.9,0 1051.12,-370.1 1394.06,-609.43 109.94,-76.73 217.32,-157.34 321.52,-241.71 19.39,-16.9 44.35,-13.64 65.32,-2.88 37.94,19.48 49.42,67.42 15.12,91.84 -395.87,385.3 -1315.31,1028.25 -1875.91,1016.22 -288.88,-6.2 -522.17,-142.38 -539.35,-454.15 -14.04,-254.99 99.33,-512.8 234.25,-723.08 162.5,-253.28 382.98,-483.35 613.93,-675.13 346.24,-287.52 905.21,-631.31 1369.8,-631.31 206.19,0 401.85,88.34 401.85,320.59 0,267.16 -400.05,619.31 -659.94,619.31 -101.18,0 -148.53,-114.89 -148.53,-201.11 0,-44.23 32.68,-90.46 60.52,-122.7 25.66,-29.71 81.84,-87.96 123.86,-87.96 11.58,0 22.78,4.14 31.57,11.71 21.23,18.28 20.38,45.47 7.42,66.43 -2.63,4.25 -5.47,8.41 -8.28,12.55 -0.6,0.87 -1.19,1.75 -1.79,2.62z"/>
   <g>
    <path class="fil1" d="M6442.38 5207.65c223.07,-256.64 422.47,-543.12 565.07,-868.67 161.8,-369.43 328.52,-859.08 277.66,-1323.88 -52.14,-476.56 -281.95,-874.09 -557.61,-1074.41 -814.06,-591.58 -1806.91,32.66 -2013.05,770.43 -28.35,101.47 -27.45,246.69 -80.77,319.92 -55.44,76.16 -189.59,112.51 -298.4,52.92 -128.36,-70.31 -118.77,-298.96 -232.62,-585.7 -630.44,-1587.9 -2581.59,-1530.81 -2884.33,-416.09 -176.08,648.31 216.54,1338.39 554.36,1829.62 98.86,143.76 445.01,572.08 552.78,664.07 160.09,136.65 282.06,291.66 409.47,407.18 332.39,301.34 720.95,698.13 990.29,1060.49 116.27,156.43 220.09,308.83 329.72,487.55 117.75,191.98 182.45,336.83 278.65,538.07 71.11,148.76 438.39,1095.76 372.46,1230.57 -66.51,-23.8 -162.16,-266.7 -197.6,-338.74 -57.29,-116.43 -109.3,-225.88 -181.33,-352.25 -244.84,-429.52 -349.83,-595.08 -638.95,-961.75 -85.44,-108.37 -168.11,-188.21 -246.19,-287.56l-1352.27 -1197.18c-448.78,-347.91 -1000.4,-1008.32 -1277.9,-1557.34 -1080.07,-2136.85 899.89,-3545.7 2659.84,-2592.56 180.38,97.69 460.72,321.44 587.19,479.77 82.39,103.12 147.55,186.14 226.42,307.22 34.74,53.32 66.83,103.83 98.47,168.47l101.33 186.95c48.15,-61.19 91.64,-130.66 141.83,-180.59 63.99,-63.67 110.93,-109.08 166.48,-166.44 80,-82.61 264.12,-211.77 393.65,-273.55 1780.12,-849.07 3219.77,1206.89 1774.38,3291.74 -246.89,356.11 -345.53,429.93 -633.86,700.03 -80.44,75.36 -1066.96,814.89 -1261.98,842.96 -1.15,-75.9 -3.71,-60 179.54,-175.7 416.44,-262.9 821.79,-659.81 1197.27,-985.55z"/>
    <path class="fil2" d="M5833.8 2977.26c33.19,-33.19 56.01,-56 99.57,-62.23 -10.37,-20.74 -85.05,-91.27 -153.5,-91.27 -47.71,0 -91.28,37.34 -165.95,116.17 -112.02,118.24 -694.92,717.73 -908.58,931.39l-2.08 0c-275.89,10.37 -1030.96,70.53 -1022.67,240.63 4.15,91.27 116.17,153.5 118.24,114.09 -4.14,-41.49 248.93,-199.14 800.71,-259.3 -300.78,267.6 -929.32,927.25 -1373.23,927.25 -89.2,0 -153.51,-35.26 -153.51,-126.54 0,-26.96 18.67,-62.23 35.27,-76.75 -35.27,0 -82.98,53.94 -82.98,141.06 0,149.36 134.84,217.81 246.85,217.81 460.51,0 1149.21,-823.53 1439.62,-1095.27 97.5,-10.37 190.84,-12.45 286.27,-12.45 26.96,0 51.86,0 78.82,0 -93.34,203.29 -234.4,566.31 -209.51,759.22 6.22,56.01 85.05,120.32 147.28,120.32 64.31,0 138.98,-37.34 213.66,-105.79 -49.78,16.59 -116.16,49.78 -178.39,49.78 -12.45,0 -26.97,-2.07 -29.05,-24.89 -14.52,-136.91 165.95,-605.72 253.08,-788.27l2.07 0c194.99,14.52 383.76,53.94 383.76,49.79 -33.19,-29.04 -228.18,-74.68 -365.09,-93.35 163.88,-398.28 421.1,-804.86 539.34,-931.4zm-302.86 126.54c-120.31,163.88 -344.35,593.27 -429.4,777.89 -101.64,-8.29 -201.21,-12.44 -298.71,-12.44 684.55,-723.96 705.29,-744.7 728.11,-765.45z"/>
    <path class="fil3" d="M9555.61 5207.65c-223.07,-256.64 -422.47,-543.12 -565.07,-868.67 -161.8,-369.43 -328.52,-859.08 -277.66,-1323.88 52.14,-476.56 281.95,-874.09 557.61,-1074.41 814.06,-591.58 1806.91,32.66 2013.05,770.43 28.35,101.47 27.45,246.69 80.77,319.92 55.44,76.16 189.59,112.51 298.4,52.92 128.36,-70.31 118.77,-298.96 232.62,-585.7 630.44,-1587.9 2581.59,-1530.81 2884.33,-416.09 176.08,648.31 -216.54,1338.39 -554.36,1829.62 -98.86,143.76 -445.01,572.08 -552.78,664.07 -160.09,136.65 -282.06,291.66 -409.47,407.18 -332.39,301.34 -720.95,698.13 -990.29,1060.49 -116.27,156.43 -220.09,308.83 -329.72,487.55 -117.75,191.98 -182.45,336.83 -278.65,538.07 -71.11,148.76 -438.39,1095.76 -372.46,1230.57 66.51,-23.8 162.16,-266.7 197.6,-338.74 57.29,-116.43 109.3,-225.88 181.33,-352.25 244.84,-429.52 349.83,-595.08 638.95,-961.75 85.44,-108.37 168.11,-188.21 246.19,-287.56l1352.27 -1197.18c448.78,-347.91 1000.4,-1008.32 1277.9,-1557.34 1080.07,-2136.85 -899.89,-3545.7 -2659.84,-2592.56 -180.38,97.69 -460.72,321.44 -587.19,479.77 -82.39,103.12 -147.55,186.14 -226.42,307.22 -34.74,53.32 -66.83,103.83 -98.47,168.47l-101.33 186.95c-48.15,-61.19 -91.64,-130.66 -141.83,-180.59 -63.99,-63.67 -110.93,-109.08 -166.48,-166.44 -80,-82.61 -264.12,-211.77 -393.65,-273.55 -1780.12,-849.07 -3219.77,1206.89 -1774.38,3291.74 246.89,356.11 345.53,429.93 633.86,700.03 80.44,75.36 1066.96,814.89 1261.98,842.96 1.15,-75.9 3.71,-60 -179.54,-175.7 -416.44,-262.9 -821.79,-659.81 -1197.27,-985.55z"/>
    <path class="fil4" d="M13007.94 3271.36c0,-184.01 -145.78,-272.43 -353.69,-272.43 -805.34,0 -2217.68,1142.3 -2169.89,1978.71 14.34,291.55 236.59,403.87 492.29,408.65 523.36,11.94 1424.29,-595.05 1844.89,-1006.09 9.56,-4.78 -16.73,-16.73 -19.12,-14.34 -566.37,458.83 -1297.63,862.7 -1746.91,862.7 -184.01,0 -332.17,-54.96 -348.9,-255.7 -52.58,-666.74 1235.5,-1914.19 1971.54,-1914.19 148.17,0 241.37,62.13 241.37,169.67 0,193.57 -377.58,406.26 -540.09,406.26 -14.33,-19.12 57.36,-107.54 52.58,-107.54 -23.9,0 -136.22,105.15 -136.22,162.5 0,74.09 38.24,152.95 100.37,152.95 234.2,0 611.78,-332.18 611.78,-571.15z"/>
   </g>
  </g>
 </g>
</svg>
